<svg version="1.2" xmlns="http://www.w3.org/2000/svg" viewBox="0 0 918 208" width="918" height="208">
	<defs>
		<clipPath clipPathUnits="userSpaceOnUse" id="cp1">
			<path d="m-0.47 3.64h171.79v199.26h-171.79z"/>
		</clipPath>
		<clipPath clipPathUnits="userSpaceOnUse" id="cp2">
			<path d="m11.49 194.75v-183.45h-11.96v-7.66h171.13v70.6h-7.33c-1.13-9.73-3.86-19.24-8.31-28.54-4.44-9.26-12.01-17.35-22.64-24.15-10.69-6.86-24.78-10.25-42.3-10.25h-17.53v86.48h5.66c18.97 0 38-13.99 38-34.12h7.38v77.61h-7.38c0-21.04-17.6-35.83-38-35.83h-5.66v89.33h11.97v7.37h-84.99v-7.37z"/>
		</clipPath>
		<clipPath clipPathUnits="userSpaceOnUse" id="cp3">
			<path d="m207.01 3.64h190.41v202.36h-190.41z"/>
		</clipPath>
		<clipPath clipPathUnits="userSpaceOnUse" id="cp4">
			<path d="m292 3.64v7.66h-11.97v120.12c0 15.45 1.89 27.17 5.67 35.21 3.78 7.99 8.61 13.23 14.37 15.69 5.81 2.41 12.94 3.64 21.3 3.64q16.6 0.02 29.36-10.97c8.45-7.32 12.71-21.5 12.71-42.48v-96.88q0-10.78-3.54-16.16c-4.62-7.02-10.67-8.17-18.61-8.17h-3.32v-7.66h59.45v7.66h-3.31c-7.94 0-14 1.15-18.61 8.17q-3.54 5.38-3.54 16.16v96.51c0 16.21-2.69 29.49-8.03 39.74-5.34 10.3-12.2 17.82-20.51 22.68-8.28 4.82-16.98 8.03-26.1 9.54-26.93 4.49-66.45 0.4-84.92-22.36-5.9-7.27-9.62-14.82-11.15-22.73-1.53-7.9-2.27-17.01-2.27-27.45v-120.26h-11.97v-7.66z"/>
		</clipPath>
		<clipPath clipPathUnits="userSpaceOnUse" id="cp5">
			<path d="m433.79 3.64h237.38v199.26h-237.38z"/>
		</clipPath>
		<clipPath clipPathUnits="userSpaceOnUse" id="cp6">
			<path d="m524.38 202.13l-60.11-175.62h-1.1v143.91c0 16.12 5.3 24.33 22.17 24.33h5.11v7.38h-56.66v-7.38c15.43 0 20.88-8.03 20.88-24.33v-159.12h-11.96v-7.66h75.56l38.49 113.32h1.13l39.73-113.32h73.54v7.66h-11.97v183.45h11.97v7.38h-84.98v-7.38h11.97v-167.4h-1.09l-60.76 174.78z"/>
		</clipPath>
		<clipPath clipPathUnits="userSpaceOnUse" id="cp7">
			<path d="m697.72-7.03h227v221h-227z"/>
		</clipPath>
		<clipPath clipPathUnits="userSpaceOnUse" id="cp8">
			<path d="m696.67-7.33h229.33v221.33h-229.33z"/>
		</clipPath>
		<clipPath clipPathUnits="userSpaceOnUse" id="cp9">
			<path d="m697.72-7.03h227v221h-227z"/>
		</clipPath>
		<clipPath clipPathUnits="userSpaceOnUse" id="cp10">
			<path d="m696.67-7.33h229.33v221.33h-229.33z"/>
		</clipPath>
		<clipPath clipPathUnits="userSpaceOnUse" id="cp11">
			<path d=""/>
		</clipPath>
		<clipPath clipPathUnits="userSpaceOnUse" id="cp12">
			<path d="m696.67-7.33h229.33v221.33h-229.33z"/>
		</clipPath>
		<clipPath clipPathUnits="userSpaceOnUse" id="cp13">
			<path d="m696.67-7.33h229.33v221.33h-229.33z"/>
		</clipPath>
		<clipPath clipPathUnits="userSpaceOnUse" id="cp14">
			<path d="m697.72-7.03h227v221h-227z"/>
		</clipPath>
		<clipPath clipPathUnits="userSpaceOnUse" id="cp15">
			<path d="m696.67-7.33h229.33v221.33h-229.33z"/>
		</clipPath>
		<clipPath clipPathUnits="userSpaceOnUse" id="cp16">
			<path d=""/>
		</clipPath>
		<clipPath clipPathUnits="userSpaceOnUse" id="cp17">
			<path d="m696.67-7.33h229.33v221.33h-229.33z"/>
		</clipPath>
	</defs>
	<style>
		.s0 { fill: #fff200 } 
		.s1 { fill: #f5821f } 
	</style>
	<g id="Clip-Path" clip-path="url(#cp1)">
		<g>
			<g id="Clip-Path" clip-path="url(#cp2)">
				<g>
					<path fill-rule="evenodd" class="s0" d="m170.65 3.64v198.49l-171.12-0.01v-198.48z"/>
				</g>
			</g>
		</g>
	</g>
	<g id="Clip-Path" clip-path="url(#cp3)">
		<g>
			<g id="Clip-Path" clip-path="url(#cp4)">
				<g>
					<path fill-rule="evenodd" class="s0" d="m397.42 3.64v202.08h-190.41v-202.08z"/>
				</g>
			</g>
		</g>
	</g>
	<g id="Clip-Path" clip-path="url(#cp5)">
		<g>
			<g id="Clip-Path" clip-path="url(#cp6)">
				<g>
					<path fill-rule="evenodd" class="s0" d="m671.17 3.64v198.48l-237.38 0.01v-198.49z"/>
				</g>
			</g>
		</g>
	</g>
	<g id="Clip-Path" clip-path="url(#cp7)">
		<g>
			<g>
				<g id="Clip-Path" clip-path="url(#cp8)">
					<g>
						<g id="Clip-Path" clip-path="url(#cp9)">
							<g>
								<g>
									<g>
										<g id="Clip-Path" clip-path="url(#cp10)">
											<g>
												<path class="s0" d="m755.38 13.3c16.27-9.27 34.92-13.91 55.78-13.91 20.85 0 39.5 4.64 55.77 13.91q7.73 4.41 14.34 9.79c-3.23 1.19-6.39 3.21-7.76 6.5l-1.27 3.7c-0.46 1.64-0.82 3.31-1.18 4.98l-0.63 2.61c-0.25 0.47-0.5 1.03-0.91 1.37l-2.5 1.29q-7.78-13.95-19.34-23.24c-10.66-8.56-22.87-12.83-36.54-12.82-13.66 0.01-25.87 4.28-36.54 12.82-10.69 8.6-18.96 20.15-24.79 34.77q-8.78 21.93-8.77 47.85-0.01 25.92 8.77 47.84c5.83 14.62 14.1 26.18 24.79 34.77q6.3 5.05 13.31 8.11c1.36 2.03 1.62 3.68 3.52 5.75l0.18 0.18c2.82 2.52 5.19 4.61 7.5 6.33-16.05-1.46-30.66-5.92-43.73-13.37-16.32-9.32-28.96-21.86-37.84-37.71-8.96-15.84-13.4-33.16-13.4-51.89 0-18.73 4.44-36.07 13.4-51.92 8.89-15.85 21.52-28.39 37.84-37.71z"/>
											</g>
										</g>
									</g>
								</g>
								<g id="Clip-Path" clip-path="url(#cp11)">
									<g>
										<g>
											<g id="Clip-Path" clip-path="url(#cp12)">
												<g>
													<path class="s0" d="m755.38 13.3c16.27-9.27 34.92-13.91 55.78-13.91 20.85 0 39.5 4.64 55.77 13.91q7.73 4.41 14.34 9.79c-3.23 1.19-6.39 3.21-7.76 6.5l-1.27 3.7c-0.46 1.64-0.82 3.31-1.18 4.98l-0.63 2.61c-0.25 0.47-0.5 1.03-0.91 1.37l-2.5 1.29q-7.78-13.95-19.34-23.24c-10.66-8.56-22.87-12.83-36.54-12.82-13.66 0.01-25.87 4.28-36.54 12.82-10.69 8.6-18.96 20.15-24.79 34.77q-8.78 21.93-8.77 47.85-0.01 25.92 8.77 47.84c5.83 14.62 14.1 26.18 24.79 34.77q6.3 5.05 13.31 8.11c1.36 2.03 1.62 3.68 3.52 5.75l0.18 0.18c2.82 2.52 5.19 4.61 7.5 6.33-16.05-1.46-30.66-5.92-43.73-13.37-16.32-9.32-28.96-21.86-37.84-37.71-8.96-15.84-13.4-33.16-13.4-51.89 0-18.73 4.44-36.07 13.4-51.92 8.89-15.85 21.52-28.39 37.84-37.71z"/>
												</g>
											</g>
										</g>
									</g>
								</g>
							</g>
						</g>
					</g>
				</g>
			</g>
			<g>
				<g id="Clip-Path" clip-path="url(#cp13)">
					<g>
						<g id="Clip-Path" clip-path="url(#cp14)">
							<g>
								<g>
									<g>
										<g id="Clip-Path" clip-path="url(#cp15)">
											<g>
												<path class="s1" d="m836.28 62.03c-2.95 1.85-2.86 1.02-4.26 3.8-1.55 3.1-3.18 6.8-7.46 8.49-3.18 1.27-8.55 4.72-9.45 7.27-1.75 4.95 2.66 2.65-6.09 8.9l-4.58 3.69c-2.49 1.97-2.59 1.74-2.81 4.68-0.15 1.82-0.22 4-0.99 5.29-1.28 2.09-3.76 1.3-3.85 4.22-0.12 3.39-2.65 2.57-4.08 5.58-3 6.37-2.81 7.19-6.84 12.92-3.52 5.01-2.72 3.83-5.19 9.03-2.03 4.29-0.13 6.18-0.95 11.25l-1.16 8.01c-0.53 1.54-0.7 1.13-0.89 2.81-0.26 2.19 0.43 3.85 1.3 6.2 1.56 4.14-0.19 2.57-0.51 5.82-0.45 4.49 3.33 8.12 5.33 11.56 5.41 9.3 4.19 5.34 7.24 9.8 1.47 2.13 1.6 3.62 3.25 5.43 10.37 9.26 14.25 11.46 24.3 10.61l9.3-0.5c5.71-0.31 4.98-0.81 10.21-2.78 2.67-1 5.2-1.03 8.03-1.68 0.52-0.11 11.89-3.37 12.8-4.27 1.45-1.44 2.13-1.66 12.9-7.71 4.63-5.65 13.3-10.63 14.35-12.13 1.42-2 5.28-1 9.13-5.3 2.98-3.35 1.22-4.92 6.22-6.87 0.44-1.03 1.47-3.87 2.09-4.97l1.98-6.65c1.44-2.02 3.49-0.79 3.87-4.95 0.31-3.28 2.06-3.37 3.22-6.13 2.14-5.11 2.91-6.47 3.29-13.56l2.04-15.03c0.28-2.05 0.22-5.93 0.24-7.95 0.08-8.5-4.68-1.99-2.31-8.34 3.09-8.35-1.76-10.01-1.05-16.58 0.92-8.62-2.83-18.4-6.77-26.07-2.1-4.07-4.86-6.01-7.73-11.8l-0.62-1.16c-4.98-10.1-9.31-13.95-16.2-16.51-0.16 0.07-5.11 1.38-6.49 4.69-1.79 4.24-2.42 10.22-3.2 11.59-0.87 1.5-1.4 3.43-7.64 5.16-1.73 0.49-10.02 3.37-11.48 3.96-3.18 1.28-4.09 3.18-5.78 5.17-4.16 4.86-4.9 0.12-12.7 5.04m-8.04 112.36c0.42-0.45 1.13-1.09 2.43-2.17 2.71-2.23 1.49-2.04 2.3-4.93 3.37-2.03 5.32-1.03 7.67 0.01l0.99 0.45c2.76 0.31 3.71-1.14 7.08-2.23l9.54-3.58c2.23-0.77 7.23-1.87 8.78-2.72 2.41-1.31 4.27-2.81 7.62-4.56 2.49-1.29 5.61-2.49 7.05-4.63 3.08-4.63 4.12-2.45 10.86-4.19 1.76-0.46 2.95-1.13 4.63-1.15 1.46 0.17 5.06-0.8 5.92 0.53 1.69 2.62-0.58 8.49-4.4 9.65-5.39 1.63-7.59 4.94-10.19 9.06-0.5 0.8-8.7 2.2-14.95 4.62-4.84 1.86-7.85 4.85-9.39 5.38-3.66 1.26-7.33 1.13-9.02 1.65-10.06 3.2-11.59 0.17-14.57 1.38-2.59 1.05-7.06 2.48-9.75 1.62-3.13-1.66-5.27-1.42-2.6-4.21zm-29.86-29.84c0.97 2.55 0.67 3.77 1.38 5.65 0.84 2.26 6.95 12.1 8 16.09l1.14 5.67c0.44 2.04 1.42 3.39 1.75 5.19 0.73 4.12 0.39 6.77 1.87 11.29-2.24 2.07-2.74 1.33-3.7 3.98-0.95 2.62-1.25 2.15-4.48 3.19-4.47-2.98-2.11-2.95-5.7-4.53-2.52-1.1-2.73-3.43-5.02-5.53-3.17-2.88-3.97-3.75-4.96-7.25-0.89-3.08-2.29-4.15-4.48-10.67-0.88-2.6-0.25-3.07 1.42-4.82 0.21-0.21 1.44-1.89 3.61-0.92 1.32 0.59 2.44 3.02 3.71 3.29 7.59 1.6 3.56 6.74 5.27 7.1 2.58 0.55 4.66-2.85 3.44-4.84-1.44-2.34-6.6-7.31-10.96-11.12-2.72-2.38-1.88-4.28-4.76-4.68-0.73-3.54 1.81-4.44 0.15-8.53-1.21-2.98 0.12-4.78 2.86-7.18 1.25-1.11 0.97-2.52 2.69-2.03 0.63 0.18 2.22 1.56 2.55 2.02 1.73 2.35 0.24 0.88 1.99 4.08 0.96 1.76 1.47 2.53 2.26 4.56zm106.46-56.11c0.95 1.68 9.46 4.33 3.15 11.85l-4.81 5.1c-1.88 2.06-0.36 1.37-1.3 3.2-0.7 1.38-4.94 2.65-0.66 4.76 5.54-1.65 3.13-2.76 5.01-5.15 2.5-0.49 3.72 0.81 4.79 3.61 1.3 3.47-0.79 3.61-1.61 6.81-0.53 2.04-0.45 4.38-1.47 6.77-2.1 4.99 5.29 6.67-4.63 12.91-1.72 1.1-8.57 3.69-10.65 3.95-1.86 0.23-1.65-0.58-3.63 0.37-1.66 0.8-1.97 1.49-4.01 1.8-2.64 0.4-6.52 1.08-7.92 3.54-2.12 3.72-2.45 2.78-7.18 4.56l-14.84 6.75c-7.8 4.62-2.35 0.87-12.58 3.67l-0.33 0.19c-2.35-0.1-2.42-2.05-2.53-3.29-0.28-2.76 3.05-0.27 4.63-4.54 1.03-2.79 8.04-3.69 8.51-7.5 0.19-1.52-0.37-4.15 0.83-5.38 1.89-1.97 2.3-0.74 3.97-3.86 5.47-10.22 4-3.24 8.47-8.48l0.13-0.16c0.87-1.04 2.72-3.02 4.06-2.98 4.39 1.82 3.11-0.13 6.67-2.12 1.85-1.04 2.36-0.47 3.79-0.3 1.45 0.17 9.47-0.12 11.87-1.5 0.29-0.17 2.36-0.94 3.96-2.11 2.23-1.64 3.75-3.73 0.27-2.89-1.04 0.26-1.71 0.62-3.36 1.26-1.77 0.69-2.71-0.02-4.27 0.35-7.07 1.69-2.31 0.83-6.9-1.48 2.24-2.32 5.7-3.33 5.68-6.43-2.25-0.38-3.89 0.96-5.55 2.66-2.42 2.47-3.8 2.11-6.92 3.49-4.78 2.13-3.61 5.96-12.87 8.88 0.11-1.69 0.66-1.56 1.72-2.84l1.78-2.69c1.06-1.96 1.83-3.99 2.63-6.07 0.45-1.17 1.9-4.58 1.92-6.09 0.07-2.94-1.01-4.17 0.57-6.99l3.28-5.49c0.72-1.07 1.16-1.63 2.47-2.36l13.96-8.23c1.17-1.27 0.26-1.43 1.34-3.14 3.11-0.12 2.53 3.12 6.56 3.53 1.54-1.35 1.24-1.35 1.98-2.83 1.27-0.24 1.87-0.04 2.94 0.37l0.19 0.07c3.6 2.47 1.49 1.68 0.89 4.45zm-91.81 82.22c-0.41-4.03-4.39-9.84-5.02-11.47-2.06-5.28-0.23-5.32-3.79-11.1-7.91-12.85-3.69-10.35-5.32-13.63-1.6-3.22-1.95-1.81-4.46-1.9-2.74-3.72-1.69-4.52 0.25-9.97 0.88-2.49-0.05-2.51 3.07-4.04 4.49-2.18 5.28-4.5 8.82 3.76 1.06 2.46-0.43 3.39 0.57 5.82l1.47 2.25c1.85 3.56-2.63-1.32 2.81 8.61 4.94 9 8.01 11.31 7.08 22.41-0.41 4.92 2.16 6.73 1.34 11.65-0.57 3.41 0.69 5.06-2.75 6.51-3.38 1.43-3.84-6.83-4.05-8.9zm88.52-90.36c-7.35-0.71 3.2-12.75 3.22-12.77 1.15 2.96 2.58 4.91 1.76 7.39-0.95 2.86 2.52 5.95-0.07 6.12-0.68 0.05-3.04-0.56-4.91-0.74zm-64.33 66.23c-1.02-9.94 0.3-11.69-6.64-21.17-1.92-2.62-5.18-3.61-8.43-8.21-1.72-2.43-1.56-2.78-4.17-1.64-2.05 5.54 1.81 2.92 3.36 8.63 2 7.27 1.54 0.78 5.91 9.12 2.55 4.88 2.11 3.38 3.44 8.2 0.66 2.37 0.36 5.41-0.34 7.6-0.79 2.43 0.68 2.33 1.57 4.98-0.58 2.72-3.62 6.02-2.79 8.89 0.69 2.44 0.93 1.59-1.02 4.07-2.77 3.5-6.37 3.06-6.66-1.76l0.18-1.3c-0.29-2.17-0.6-2-0.79-3.35-0.26-1.89 1.3-4.89 0.99-8.1-1.13-11.61-7.4-14.34-9-25.45-0.32-2.23 0.14-7.94-1.09-9.21-1.26-1.3-2.92-2.09-3.98-4.37-2.03-4.34-3.46-1.36-1.81-5.54 1.04-2.64-1.42-5.72 5.08-5.31 2.17 0.14 1.71 1.57 3.83 2.57 2.52-1.44 1.4-5.11 1.34-6.16-0.15-2.05 2.31-16.67 9.04-17.35 2.29 2.23 0.65 2.52 4.13 3.33 2.89 0.67 2.36 1.34 3.33 4.02 0.8 2.25 1.05-0.65 1.54 3.98l1.77 8.57c1.5 3.71 2.45 2.86 3.77 4.71 1.51 2.09 0.89 3.69 3.19 6 3.58 3.6 4.02 4.63 4.7 10.57 0.45 3.87 1.22 2.78 0.66 5.27-0.39 1.72 1.09 3.7 0.66 6.29-0.22 1.33-0.58 1.54-0.75 2.52-0.7 3.74 0.8-0.16-1.53 5.32-0.85 1.99-0.17 1.85-0.43 3.03-0.16 0.78-2.76 3.16-3.53 4.04-2.8 3.31-5.78 9.88-6.97 2.52-0.31-1.87 0.1-4.06 1.43-5.28zm50.66-63.94c-1.86-4.3 2.62-5.61 3.39-6.88 0.58-0.96 0.26-2.49 0.88-4.01l3.55-6.92c3.67-3.72 1.94-1.99 3.4-6.69l0.89-1.8c0.95-1.08 0.49-0.64 1.8-1.01 4.23 4.15-1.16 13.67-2.8 15.4-3.25 3.44-0.89 8.78-11.1 11.91zm-17.73 11.76c-1.34-0.85-2.41-4.64-2.62-7.97-0.14-2.39 1.09-4.65 1.3-7.23 0.19-2.46-1.44-5.06-1.49-7.43-0.07-3.25-1.38-4.3 0.54-6.81 3.99-5.25 1.1-5.81 4.84-7.98l0.19-0.1 1.71-0.92c1.65-0.77 2.91-0.86 4.57-1.76 1.41-0.77 3.34-11.18 6.04-12.99 2.99-2.01 6.79 4.61 8.72 4.84 1.41 0.76 1.18 5.58 1.74 6.71l0.51 0.12c0.39 2.93 0.58 3.1-0.24 4.48-3.07 5.22-1.03 2.9-2.53 5.54-0.48 0.85-0.4 2.51-0.91 3.36l-5.64 6.13c-3.99 7.4-0.74 11.82-6.55 14.57-7.86 3.72-5.38 7.74-10.22 7.44zm-13.98-25.59c0.09 2.24-1 3.87-1.02 6.32 1.26 2.41 1.22 2.52-0.06 5.42-1.77 3.99 0.51 2.53 1.19 5.16 0.32 1.24-0.03 3.23-0.51 4.41l-1.21 4.5c-0.93 3.45-2.67 5.16-3.41 8.91-0.39 1.96-0.2 3.17-0.84 4.98-0.62 1.73-0.07 1.93-2.16 2.73-3.98-5.32-1.51-2.69-4.13-6.83-2-3.17-2.44-2.96-3.82-7.67-1.35-4.6-2.24-6.87-3.37-9.72-2.55-6.41 0.96-3.36 0.89-10.98-0.05-6.33 0.36-4.69 2.4-7.13-0.43-2.97 7.96-5.24 12.22-6.18 4.01-0.88 3.6 1.22 3.78 6.09zm-2.37 65.38c-2.53-1.69-0.17-4.02 0.05-6.6 0.36-4.17-2.18-1.12-0.89-8.75 0.58-3.48-1.59-1.99 0.23-6.51 0.35-0.87 0.51-1.73 0.83-3.12 1.13-4.75 1.66-0.82 3.28-11.47 0.43-2.86 0.2-3.44 1.84-5.79 2.02-2.88 2.41-5.59 1.28-8.29-0.35-0.82 0.16-5.16 0.21-5.99 0.3-6.06-1.6-6.71 0.12-16.38 1.01-3.1-1.02-3.56-0.61-5.83l0.22-1.13c3.3-0.71 2.75 0.32 3.66 1.57l0.65 0.45c2.39 2.55 0.73 7.49 0.09 10.95-1.18 6.35 0.82 8.7 0.26 15.01-0.16 1.88-1.07 5.67-0.14 7.52l0.99 2.65c0.27 0.77 0.56 1.33 0.77 2.34 3.09 13.88-1.09 9.22-2.76 21.35-0.4 2.89-1.2 4.6-2.78 6.98-0.63 0.95-1.03 1.18-1.75 2.04l-4.1 6.68c-0.77 1.67 0.13 1.22-1.43 2.32zm-33.8 54.05c0.01-1.26 1.15-2.88 1.89-4.09 2.28-3.78 4.79-3.42 8.06-1.4 1.57 0.96 2.55 2.24 4.3 2.39l1.39-0.28c1.88 0.52 2.43 0.95 3.22 1.31 3.16 1.44 1.98-0.45 4.94 0.21 2.19 0.48 2.56 0.44 4.98 0.13 1.76-0.22 3.11-0.03 4.17-0.87l1.08-1.35c-4.1-3.18-10.98 1.38-14.42-2.33l-1.08-1.62c2.8-0.5 3.05-0.11 4.75 0.23 1.83 0.39 2.87-0.6 4.58-0.51 1.68 0.09 1.69 0.78 4.33 0.26 1.91-0.39 2.9-0.54 4.68-0.67 11.99-0.87 2.65-1.21 11.58-3.68 3.24-0.88 5.19-0.28 4.89-2.23l-0.03-0.69c0.94-0.7 2.51-0.77 3.94-0.89 3.08-0.23 2.08 2.05 0.47 3.23-2.27 1.65-6.4 2.47-7.42 2.72-2.58 0.61-3.36 1.28-5.33 2.66-1.59 1.12-4.26 2.23-6.2 2.88 0.9 1.49 1.36 1.11 2.36 1.25l1.51 1.1c-2.06 1.55-3.78 1.41-5.05 2.15-3.01 1.75-2.51 1.02-5.23 0.88-3.37-0.19-6.16 0.06-7.83 1.87-1.36 1.48-1.29 1.98-0.8 3.58 1.21 3.95-4.07 3.36-9.58 4.95-1.94 0.57-4.9 0.38-6.73 0.42-2.58 0.07-6.81 0.87-10.76 1.13-2.66 0.18-5.45-1.37-3.02-3.72 2.54-2.47 2.25-0.86 3.39-4.26 3.16-1.35 9.44-0.15 9.84-0.31 1.85-0.77-0.79-3.05-2.11-3.41-2.33-0.63-2.87 0.26-4.79-1.09z"/>
											</g>
										</g>
									</g>
								</g>
								<g id="Clip-Path" clip-path="url(#cp16)">
									<g>
										<g>
											<g id="Clip-Path" clip-path="url(#cp17)">
												<g>
													<path class="s1" d="m836.28 62.03c-2.95 1.85-2.86 1.02-4.26 3.8-1.55 3.1-3.18 6.8-7.46 8.49-3.18 1.27-8.55 4.72-9.45 7.27-1.75 4.95 2.66 2.65-6.09 8.9l-4.58 3.69c-2.49 1.97-2.59 1.74-2.81 4.68-0.15 1.82-0.22 4-0.99 5.29-1.28 2.09-3.76 1.3-3.85 4.22-0.12 3.39-2.65 2.57-4.08 5.58-3 6.37-2.81 7.19-6.84 12.92-3.52 5.01-2.72 3.83-5.19 9.03-2.03 4.29-0.13 6.18-0.95 11.25l-1.16 8.01c-0.53 1.54-0.7 1.13-0.89 2.81-0.26 2.19 0.43 3.85 1.3 6.2 1.56 4.14-0.19 2.57-0.51 5.82-0.45 4.49 3.33 8.12 5.33 11.56 5.41 9.3 4.19 5.34 7.24 9.8 1.47 2.13 1.6 3.62 3.25 5.43 10.37 9.26 14.25 11.46 24.3 10.61l9.3-0.5c5.71-0.31 4.98-0.81 10.21-2.78 2.67-1 5.2-1.03 8.03-1.68 0.52-0.11 11.89-3.37 12.8-4.27 1.45-1.44 2.13-1.66 12.9-7.71 4.63-5.65 13.3-10.63 14.35-12.13 1.42-2 5.28-1 9.13-5.3 2.98-3.35 1.22-4.92 6.22-6.87 0.44-1.03 1.47-3.87 2.09-4.97l1.98-6.65c1.44-2.02 3.49-0.79 3.87-4.95 0.31-3.28 2.06-3.37 3.22-6.13 2.14-5.11 2.91-6.47 3.29-13.56l2.04-15.03c0.28-2.05 0.22-5.93 0.24-7.95 0.08-8.5-4.68-1.99-2.31-8.34 3.09-8.35-1.76-10.01-1.05-16.58 0.92-8.62-2.83-18.4-6.77-26.07-2.1-4.07-4.86-6.01-7.73-11.8l-0.62-1.16c-4.98-10.1-9.31-13.95-16.2-16.51-0.16 0.07-5.11 1.38-6.49 4.69-1.79 4.24-2.42 10.22-3.2 11.59-0.87 1.5-1.4 3.43-7.64 5.16-1.73 0.49-10.02 3.37-11.48 3.96-3.18 1.28-4.09 3.18-5.78 5.17-4.16 4.86-4.9 0.12-12.7 5.04m-8.04 112.36c0.42-0.45 1.13-1.09 2.43-2.17 2.71-2.23 1.49-2.04 2.3-4.93 3.37-2.03 5.32-1.03 7.67 0.01l0.99 0.45c2.76 0.31 3.71-1.14 7.08-2.23l9.54-3.58c2.23-0.77 7.23-1.87 8.78-2.72 2.41-1.31 4.27-2.81 7.62-4.56 2.49-1.29 5.61-2.49 7.05-4.63 3.08-4.63 4.12-2.45 10.86-4.19 1.76-0.46 2.95-1.13 4.63-1.15 1.46 0.17 5.06-0.8 5.92 0.53 1.69 2.62-0.58 8.49-4.4 9.65-5.39 1.63-7.59 4.94-10.19 9.06-0.5 0.8-8.7 2.2-14.95 4.62-4.84 1.86-7.85 4.85-9.39 5.38-3.66 1.26-7.33 1.13-9.02 1.65-10.06 3.2-11.59 0.17-14.57 1.38-2.59 1.05-7.06 2.48-9.75 1.62-3.13-1.66-5.27-1.42-2.6-4.21zm-29.86-29.84c0.97 2.55 0.67 3.77 1.38 5.65 0.84 2.26 6.95 12.1 8 16.09l1.14 5.67c0.44 2.04 1.42 3.39 1.75 5.19 0.73 4.12 0.39 6.77 1.87 11.29-2.24 2.07-2.74 1.33-3.7 3.98-0.95 2.62-1.25 2.15-4.48 3.19-4.47-2.98-2.11-2.95-5.7-4.53-2.52-1.1-2.73-3.43-5.02-5.53-3.17-2.88-3.97-3.75-4.96-7.25-0.89-3.08-2.29-4.15-4.48-10.67-0.88-2.6-0.25-3.07 1.42-4.82 0.21-0.21 1.44-1.89 3.61-0.92 1.32 0.59 2.44 3.02 3.71 3.29 7.59 1.6 3.56 6.74 5.27 7.1 2.58 0.55 4.66-2.85 3.44-4.84-1.44-2.34-6.6-7.31-10.96-11.12-2.72-2.38-1.88-4.28-4.76-4.68-0.73-3.54 1.81-4.44 0.15-8.53-1.21-2.98 0.12-4.78 2.86-7.18 1.25-1.11 0.97-2.52 2.69-2.03 0.63 0.18 2.22 1.56 2.55 2.02 1.73 2.35 0.24 0.88 1.99 4.08 0.96 1.76 1.47 2.53 2.26 4.56zm106.46-56.11c0.95 1.68 9.46 4.33 3.15 11.85l-4.81 5.1c-1.88 2.06-0.36 1.37-1.3 3.2-0.7 1.38-4.94 2.65-0.66 4.76 5.54-1.65 3.13-2.76 5.01-5.15 2.5-0.49 3.72 0.81 4.79 3.61 1.3 3.47-0.79 3.61-1.61 6.81-0.53 2.04-0.45 4.38-1.47 6.77-2.1 4.99 5.29 6.67-4.63 12.91-1.72 1.1-8.57 3.69-10.65 3.95-1.86 0.23-1.65-0.58-3.63 0.37-1.66 0.8-1.97 1.49-4.01 1.8-2.64 0.4-6.52 1.08-7.92 3.54-2.12 3.72-2.45 2.78-7.18 4.56l-14.84 6.75c-7.8 4.62-2.35 0.87-12.58 3.67l-0.33 0.19c-2.35-0.1-2.42-2.05-2.53-3.29-0.28-2.76 3.05-0.27 4.63-4.54 1.03-2.79 8.04-3.69 8.51-7.5 0.19-1.52-0.37-4.15 0.83-5.38 1.89-1.97 2.3-0.74 3.97-3.86 5.47-10.22 4-3.24 8.47-8.48l0.13-0.16c0.87-1.04 2.72-3.02 4.06-2.98 4.39 1.82 3.11-0.13 6.67-2.12 1.85-1.04 2.36-0.46 3.79-0.3 1.45 0.17 9.47-0.12 11.87-1.5 0.29-0.16 2.36-0.94 3.96-2.11 2.23-1.64 3.75-3.73 0.27-2.89-1.04 0.26-1.71 0.62-3.36 1.26-1.77 0.69-2.71-0.02-4.27 0.35-7.07 1.69-2.31 0.83-6.9-1.48 2.24-2.32 5.7-3.33 5.68-6.43-2.25-0.38-3.89 0.96-5.55 2.66-2.42 2.48-3.8 2.11-6.92 3.49-4.78 2.13-3.61 5.96-12.87 8.88 0.11-1.69 0.66-1.56 1.72-2.84l1.78-2.69c1.06-1.96 1.83-3.99 2.63-6.07 0.45-1.17 1.9-4.58 1.92-6.09 0.07-2.94-1.01-4.17 0.57-6.99l3.28-5.49c0.72-1.07 1.16-1.63 2.47-2.36l13.96-8.23c1.17-1.27 0.26-1.43 1.34-3.14 3.11-0.12 2.53 3.12 6.56 3.53 1.54-1.35 1.24-1.35 1.98-2.83 1.27-0.24 1.87-0.04 2.94 0.37l0.19 0.07c3.6 2.47 1.49 1.68 0.89 4.45zm-91.81 82.22c-0.41-4.03-4.39-9.84-5.02-11.47-2.06-5.28-0.23-5.32-3.79-11.1-7.91-12.85-3.69-10.35-5.32-13.63-1.6-3.22-1.95-1.81-4.46-1.9-2.74-3.72-1.69-4.52 0.25-9.97 0.88-2.48-0.05-2.51 3.07-4.04 4.49-2.18 5.28-4.5 8.82 3.76 1.06 2.46-0.43 3.39 0.57 5.82l1.47 2.25c1.85 3.56-2.63-1.32 2.81 8.61 4.94 9 8.01 11.31 7.08 22.41-0.41 4.92 2.16 6.73 1.34 11.65-0.57 3.41 0.69 5.06-2.75 6.51-3.38 1.43-3.84-6.83-4.05-8.9zm88.52-90.36c-7.35-0.71 3.2-12.75 3.22-12.77 1.15 2.96 2.58 4.91 1.76 7.39-0.95 2.86 2.52 5.95-0.07 6.12-0.68 0.05-3.04-0.56-4.91-0.74zm-64.33 66.23c-1.02-9.94 0.3-11.69-6.64-21.17-1.92-2.62-5.18-3.61-8.43-8.21-1.72-2.43-1.56-2.78-4.17-1.64-2.05 5.54 1.81 2.92 3.36 8.63 2 7.27 1.54 0.78 5.91 9.12 2.55 4.88 2.11 3.38 3.44 8.2 0.66 2.37 0.36 5.41-0.34 7.6-0.79 2.43 0.68 2.33 1.57 4.98-0.58 2.72-3.62 6.02-2.79 8.89 0.69 2.44 0.93 1.59-1.02 4.07-2.77 3.5-6.37 3.06-6.66-1.76l0.18-1.3c-0.29-2.17-0.6-2-0.79-3.35-0.26-1.89 1.3-4.89 0.99-8.1-1.13-11.61-7.4-14.34-9-25.45-0.32-2.23 0.14-7.94-1.09-9.21-1.26-1.3-2.92-2.09-3.98-4.37-2.03-4.34-3.46-1.35-1.81-5.54 1.04-2.64-1.42-5.72 5.08-5.31 2.17 0.14 1.71 1.57 3.83 2.57 2.52-1.44 1.4-5.11 1.34-6.16-0.15-2.05 2.31-16.66 9.04-17.35 2.29 2.23 0.65 2.52 4.13 3.33 2.89 0.67 2.36 1.34 3.33 4.02 0.8 2.25 1.05-0.65 1.54 3.98l1.77 8.57c1.5 3.71 2.45 2.86 3.77 4.71 1.51 2.09 0.89 3.69 3.19 6 3.58 3.6 4.02 4.63 4.7 10.58 0.45 3.86 1.22 2.77 0.66 5.26-0.39 1.72 1.09 3.7 0.66 6.29-0.22 1.33-0.58 1.54-0.75 2.52-0.7 3.74 0.8-0.16-1.53 5.32-0.85 1.99-0.17 1.85-0.43 3.03-0.16 0.78-2.76 3.16-3.53 4.04-2.8 3.31-5.78 9.88-6.97 2.52-0.31-1.87 0.1-4.06 1.43-5.28zm50.66-63.94c-1.86-4.3 2.62-5.61 3.39-6.88 0.58-0.96 0.26-2.49 0.88-4.01l3.55-6.92c3.67-3.72 1.94-1.99 3.4-6.69l0.89-1.8c0.95-1.08 0.49-0.64 1.8-1.01 4.23 4.15-1.16 13.67-2.8 15.4-3.25 3.44-0.89 8.78-11.1 11.91zm-17.73 11.76c-1.34-0.85-2.41-4.64-2.62-7.97-0.14-2.39 1.09-4.65 1.3-7.23 0.19-2.46-1.44-5.06-1.49-7.43-0.07-3.25-1.38-4.3 0.54-6.81 3.99-5.25 1.1-5.81 4.84-7.98l0.19-0.1 1.71-0.92c1.65-0.77 2.91-0.86 4.57-1.76 1.41-0.77 3.34-11.18 6.04-12.99 2.99-2.01 6.79 4.61 8.72 4.84 1.41 0.76 1.18 5.58 1.74 6.71l0.51 0.12c0.39 2.93 0.58 3.1-0.24 4.48-3.07 5.22-1.03 2.9-2.53 5.54-0.48 0.85-0.4 2.51-0.91 3.36l-5.64 6.13c-3.99 7.4-0.74 11.82-6.55 14.57-7.86 3.72-5.38 7.74-10.22 7.44zm-13.98-25.59c0.09 2.24-1 3.87-1.02 6.32 1.26 2.41 1.22 2.52-0.06 5.42-1.77 3.99 0.51 2.53 1.19 5.16 0.32 1.24-0.03 3.23-0.51 4.41l-1.21 4.51c-0.93 3.44-2.67 5.15-3.41 8.9-0.39 1.96-0.2 3.17-0.84 4.98-0.62 1.73-0.07 1.93-2.16 2.73-3.98-5.32-1.51-2.69-4.13-6.83-2-3.17-2.44-2.96-3.82-7.67-1.35-4.6-2.24-6.86-3.37-9.72-2.55-6.41 0.96-3.36 0.89-10.98-0.05-6.33 0.36-4.69 2.4-7.13-0.43-2.97 7.96-5.24 12.22-6.18 4.01-0.88 3.6 1.22 3.78 6.09zm-2.37 65.38c-2.53-1.69-0.17-4.02 0.05-6.6 0.36-4.17-2.18-1.12-0.89-8.75 0.58-3.48-1.59-1.99 0.23-6.51 0.35-0.87 0.51-1.73 0.83-3.12 1.13-4.75 1.66-0.82 3.28-11.47 0.43-2.86 0.2-3.44 1.84-5.79 2.02-2.88 2.41-5.59 1.28-8.29-0.35-0.82 0.16-5.16 0.21-5.99 0.3-6.06-1.6-6.71 0.12-16.38 1.01-3.1-1.02-3.56-0.61-5.83l0.22-1.13c3.3-0.71 2.75 0.32 3.66 1.57l0.65 0.45c2.39 2.55 0.73 7.49 0.09 10.95-1.18 6.35 0.82 8.7 0.26 15.01-0.16 1.88-1.07 5.67-0.14 7.52l0.99 2.65c0.27 0.77 0.56 1.33 0.77 2.34 3.09 13.88-1.09 9.22-2.76 21.35-0.4 2.89-1.2 4.6-2.78 6.98-0.63 0.95-1.03 1.18-1.75 2.04l-4.1 6.68c-0.77 1.67 0.13 1.22-1.43 2.32zm-33.8 54.05c0.01-1.26 1.15-2.88 1.89-4.09 2.28-3.78 4.79-3.42 8.06-1.4 1.57 0.96 2.55 2.24 4.3 2.39l1.39-0.28c1.88 0.52 2.43 0.95 3.22 1.31 3.16 1.44 1.98-0.45 4.94 0.21 2.19 0.48 2.56 0.44 4.98 0.13 1.76-0.22 3.11-0.03 4.17-0.87l1.08-1.35c-4.1-3.18-10.98 1.38-14.42-2.33l-1.08-1.62c2.8-0.5 3.05-0.11 4.75 0.23 1.83 0.39 2.87-0.6 4.58-0.51 1.68 0.09 1.69 0.78 4.33 0.26 1.91-0.39 2.9-0.54 4.68-0.67 11.99-0.87 2.65-1.21 11.58-3.68 3.24-0.88 5.19-0.28 4.89-2.23l-0.03-0.69c0.94-0.7 2.51-0.77 3.94-0.89 3.08-0.23 2.08 2.05 0.47 3.23-2.27 1.65-6.4 2.47-7.42 2.72-2.58 0.61-3.36 1.28-5.33 2.66-1.59 1.12-4.26 2.23-6.2 2.88 0.9 1.49 1.36 1.11 2.36 1.25l1.51 1.1c-2.06 1.55-3.78 1.41-5.05 2.15-3.01 1.75-2.51 1.02-5.23 0.88-3.37-0.19-6.16 0.06-7.83 1.87-1.36 1.48-1.29 1.98-0.8 3.58 1.21 3.95-4.07 3.36-9.58 4.95-1.94 0.57-4.9 0.38-6.73 0.42-2.58 0.07-6.81 0.87-10.76 1.13-2.66 0.18-5.45-1.37-3.02-3.72 2.54-2.47 2.25-0.86 3.39-4.26 3.16-1.35 9.44-0.15 9.84-0.31 1.85-0.77-0.79-3.05-2.11-3.41-2.33-0.63-2.87 0.26-4.79-1.09z"/>
												</g>
											</g>
										</g>
									</g>
								</g>
							</g>
						</g>
					</g>
				</g>
			</g>
		</g>
	</g>
</svg>